<?xml version="1.0" encoding="utf-8"?>
<!-- Generator: Adobe Illustrator 22.1.0, SVG Export Plug-In . SVG Version: 6.00 Build 0)  -->
<svg version="1.1" id="Capa_1" xmlns="http://www.w3.org/2000/svg" xmlns:xlink="http://www.w3.org/1999/xlink" x="0px" y="0px"
	 viewBox="0 0 511.6 511.6" style="enable-background:new 0 0 511.6 511.6;" xml:space="preserve">
<g>
	<path d="M511.6,182.7c0-5.1-7.7-38.5-20.1-69.9c-16.9-42.6-40-85.4-40-85.4s-1,48.9-1,59.4c0,19.2-1.7,36.4-5,51.7
		c-3.3,15.2-8,28.4-13.8,39.5c-5.9,11.1-13.5,20.7-22.8,28.8c-9.3,8.1-19.4,14.7-30.1,19.8c-10.8,5.1-23.4,9.2-38,12.1
		c-14.6,3-29.2,5-44,6.1c-14.8,1.1-31.5,1.7-50.1,1.7h-64v-73.1c0-4.9-1.8-9.2-5.4-12.8c-3.6-3.6-7.9-5.4-12.8-5.4
		c-4.9,0-9.2,1.8-12.9,5.4L5.4,306.9c-3.6,3.6-5.4,7.9-5.4,12.8c0,4.9,1.8,9.2,5.4,12.9l146.2,146.2c3.6,3.6,7.9,5.4,12.9,5.4
		c5,0,9.2-1.8,12.8-5.4c3.6-3.6,5.4-7.9,5.4-12.9v-73.1h64c135.7,0,219-38.4,249.8-115.1C506.6,252.3,511.6,220.6,511.6,182.7z"/>
</g>
</svg>
